<svg width="89" height="16" viewBox="0 0 89 16" fill="none" xmlns="http://www.w3.org/2000/svg">
<path d="M5.05859 7.31445C5.13021 7.41862 5.23438 7.48372 5.37109 7.50977C5.51432 7.53581 5.63477 7.54883 5.73242 7.54883H5.80078C5.8138 7.54232 5.8431 7.53255 5.88867 7.51953C5.93424 7.5 5.98307 7.48372 6.03516 7.4707C6.08724 7.45768 6.13281 7.44466 6.17188 7.43164C6.21745 7.41862 6.24674 7.41211 6.25977 7.41211C6.39648 7.37305 6.55924 7.34375 6.74805 7.32422C6.93685 7.29818 7.09635 7.24935 7.22656 7.17773C7.23958 7.16471 7.27539 7.13867 7.33398 7.09961C7.39258 7.06055 7.45768 7.01823 7.5293 6.97266C7.60742 6.92057 7.67904 6.87174 7.74414 6.82617C7.81576 6.77409 7.86784 6.73828 7.90039 6.71875C7.91341 6.71224 7.93945 6.68945 7.97852 6.65039C8.01758 6.60482 8.04036 6.57878 8.04688 6.57227C8.10547 6.48112 8.16406 6.38021 8.22266 6.26953C8.28776 6.15885 8.35286 6.0612 8.41797 5.97656C8.43099 5.95052 8.45052 5.92448 8.47656 5.89844C8.50911 5.85938 8.54167 5.83008 8.57422 5.81055C8.58073 5.81055 8.58724 5.79427 8.59375 5.76172C8.60677 5.72917 8.61654 5.6901 8.62305 5.64453C8.62956 5.59896 8.63281 5.55664 8.63281 5.51758C8.63932 5.47852 8.64258 5.45247 8.64258 5.43945C8.70117 5.18555 8.75 4.9349 8.78906 4.6875C8.83464 4.43359 8.85742 4.16992 8.85742 3.89648V3.35938C8.80534 3.32031 8.75977 3.27474 8.7207 3.22266C8.68815 3.16406 8.6556 3.10547 8.62305 3.04688C8.59701 2.98828 8.56771 2.92969 8.53516 2.87109C8.5026 2.80599 8.46354 2.74414 8.41797 2.68555C8.39193 2.65951 8.34635 2.61068 8.28125 2.53906C8.22266 2.46745 8.15755 2.39258 8.08594 2.31445C8.01432 2.23633 7.94271 2.16471 7.87109 2.09961C7.80599 2.02799 7.75716 1.97591 7.72461 1.94336C7.63346 1.92383 7.51628 1.9043 7.37305 1.88477C7.23633 1.86523 7.11263 1.83919 7.00195 1.80664C6.86523 1.76107 6.73828 1.71224 6.62109 1.66016C6.50391 1.60807 6.37044 1.58203 6.2207 1.58203C6.11003 1.58203 5.98307 1.58854 5.83984 1.60156C5.69661 1.61458 5.58919 1.65365 5.51758 1.71875C5.36784 1.83594 5.25716 1.95312 5.18555 2.07031C5.11393 2.18099 5.06185 2.29818 5.0293 2.42188C5.00326 2.53906 4.98698 2.66927 4.98047 2.8125C4.98047 2.95573 4.97721 3.11523 4.9707 3.29102C4.9707 3.31706 4.96745 3.37891 4.96094 3.47656C4.95443 3.56771 4.94792 3.66862 4.94141 3.7793C4.9349 3.88346 4.92839 3.98438 4.92188 4.08203C4.91536 4.17969 4.91211 4.24154 4.91211 4.26758C4.91211 4.3457 4.90885 4.45964 4.90234 4.60938C4.90234 4.75911 4.90234 4.91862 4.90234 5.08789C4.90234 5.25716 4.89909 5.42318 4.89258 5.58594C4.89258 5.7487 4.89258 5.87891 4.89258 5.97656C4.89258 6.19792 4.90234 6.41276 4.92188 6.62109C4.94141 6.82943 4.98698 7.06055 5.05859 7.31445ZM3.55469 15C3.17057 15 2.78971 15.0098 2.41211 15.0293C2.03451 15.0553 1.66016 15.0684 1.28906 15.0684C1.06771 15.0684 0.957031 14.9674 0.957031 14.7656C0.957031 14.694 0.963542 14.6257 0.976562 14.5605C0.996094 14.4889 1.04492 14.4336 1.12305 14.3945C1.35091 14.375 1.59831 14.349 1.86523 14.3164C2.13216 14.2773 2.37956 14.2025 2.60742 14.0918C2.65299 14.0658 2.69206 14.0169 2.72461 13.9453C2.76367 13.8672 2.79297 13.7826 2.8125 13.6914C2.83854 13.6003 2.85807 13.5124 2.87109 13.4277C2.88411 13.3366 2.89388 13.265 2.90039 13.2129V12.8906V12.7539C2.90039 12.7279 2.90365 12.6888 2.91016 12.6367C2.91667 12.5781 2.92318 12.5163 2.92969 12.4512C2.94271 12.3861 2.95247 12.3275 2.95898 12.2754C2.96549 12.2168 2.96875 12.1777 2.96875 12.1582C2.96875 12.0605 2.96875 11.9108 2.96875 11.709C2.96875 11.5007 2.96875 11.2695 2.96875 11.0156C2.97526 10.7617 2.97852 10.4948 2.97852 10.2148C2.98503 9.92839 2.98828 9.6582 2.98828 9.4043C2.99479 9.14388 2.99805 8.91276 2.99805 8.71094C2.99805 8.50911 2.99805 8.35938 2.99805 8.26172C2.99805 8.08594 2.99805 7.87109 2.99805 7.61719C2.99805 7.36328 2.99479 7.09635 2.98828 6.81641C2.98828 6.52995 2.98503 6.24674 2.97852 5.9668C2.97852 5.68034 2.97526 5.42318 2.96875 5.19531C2.96875 4.96094 2.96875 4.76562 2.96875 4.60938C2.96875 4.45312 2.96875 4.36198 2.96875 4.33594C2.96875 4.2513 2.96549 4.10807 2.95898 3.90625C2.95898 3.69792 2.95573 3.47982 2.94922 3.25195C2.94922 3.02409 2.94271 2.8125 2.92969 2.61719C2.92318 2.41536 2.91341 2.27539 2.90039 2.19727C2.86784 2.13216 2.80273 2.08008 2.70508 2.04102C2.60742 2.00195 2.5 1.97266 2.38281 1.95312C2.26562 1.92708 2.14844 1.91081 2.03125 1.9043C1.92057 1.89128 1.83594 1.88151 1.77734 1.875C1.73828 1.875 1.66992 1.87174 1.57227 1.86523C1.47461 1.85872 1.37044 1.85221 1.25977 1.8457C1.14909 1.83919 1.04492 1.83268 0.947266 1.82617C0.849609 1.81966 0.784505 1.81315 0.751953 1.80664C0.725911 1.79362 0.683594 1.75781 0.625 1.69922C0.572917 1.63411 0.540365 1.59505 0.527344 1.58203V1.48438C0.527344 1.38021 0.55013 1.31185 0.595703 1.2793C0.641276 1.24023 0.716146 1.21419 0.820312 1.20117C0.904948 1.19466 1.05143 1.1849 1.25977 1.17188C1.47461 1.15885 1.69922 1.14583 1.93359 1.13281C2.17448 1.11328 2.40234 1.09701 2.61719 1.08398C2.83203 1.07096 2.98177 1.06445 3.06641 1.06445C3.09245 1.06445 3.13151 1.06445 3.18359 1.06445C3.23568 1.05794 3.29102 1.05469 3.34961 1.05469C3.4082 1.05469 3.4668 1.05469 3.52539 1.05469C3.58398 1.04818 3.63281 1.04492 3.67188 1.04492C3.75 1.0319 3.8151 1.02214 3.86719 1.01562C3.91927 1.0026 3.9681 0.996094 4.01367 0.996094C4.11133 0.996094 4.30339 0.996094 4.58984 0.996094C4.8763 0.996094 5.21159 0.999349 5.5957 1.00586C5.98633 1.01237 6.39974 1.01888 6.83594 1.02539C7.27214 1.0319 7.6888 1.04492 8.08594 1.06445C8.10547 1.06445 8.13802 1.07096 8.18359 1.08398C8.22917 1.09701 8.27799 1.11328 8.33008 1.13281C8.38216 1.14583 8.43099 1.15885 8.47656 1.17188C8.52214 1.1849 8.55469 1.19466 8.57422 1.20117C8.58073 1.20117 8.60026 1.20768 8.63281 1.2207C8.67188 1.22721 8.71094 1.23372 8.75 1.24023C8.78906 1.24674 8.82487 1.25651 8.85742 1.26953C8.89648 1.27604 8.91927 1.2793 8.92578 1.2793C8.94531 1.28581 8.98112 1.31185 9.0332 1.35742C9.0918 1.39648 9.15039 1.44206 9.20898 1.49414C9.26758 1.53971 9.31966 1.58529 9.36523 1.63086C9.41732 1.67643 9.45312 1.70573 9.47266 1.71875C9.47266 1.73828 9.48893 1.75456 9.52148 1.76758C9.56055 1.7806 9.58659 1.79362 9.59961 1.80664C9.82096 1.89779 10 1.99219 10.1367 2.08984C10.2734 2.1875 10.3841 2.30143 10.4688 2.43164C10.5534 2.55534 10.6185 2.70182 10.6641 2.87109C10.7096 3.03385 10.7552 3.22591 10.8008 3.44727C10.8203 3.55794 10.8496 3.68815 10.8887 3.83789C10.9342 3.98112 10.957 4.10807 10.957 4.21875C10.957 4.24479 10.9538 4.27083 10.9473 4.29688C10.9408 4.31641 10.9375 4.32943 10.9375 4.33594C10.9115 4.62891 10.8659 4.91862 10.8008 5.20508C10.7357 5.49154 10.6706 5.77148 10.6055 6.04492C10.5859 6.06445 10.5664 6.09375 10.5469 6.13281C10.5273 6.16536 10.5111 6.18815 10.498 6.20117C10.4915 6.21419 10.4655 6.24674 10.4199 6.29883C10.3809 6.35091 10.3353 6.40625 10.2832 6.46484C10.2311 6.52344 10.1823 6.57878 10.1367 6.63086C10.0911 6.68294 10.0651 6.71224 10.0586 6.71875C10.0586 6.73177 10.0456 6.75781 10.0195 6.79688L9.98047 6.85547C9.88281 7.03125 9.75911 7.1582 9.60938 7.23633C9.45964 7.31445 9.29036 7.38932 9.10156 7.46094C9.08854 7.48047 9.03646 7.49674 8.94531 7.50977C8.85417 7.52279 8.80208 7.53581 8.78906 7.54883C8.78255 7.54883 8.76302 7.55859 8.73047 7.57812C8.70443 7.59766 8.67513 7.62044 8.64258 7.64648C8.61003 7.67253 8.57747 7.69531 8.54492 7.71484C8.51237 7.73438 8.49284 7.7474 8.48633 7.75391C8.41471 7.79948 8.32682 7.8418 8.22266 7.88086C8.11849 7.91341 8.01107 7.94271 7.90039 7.96875C7.78971 7.99479 7.67904 8.01432 7.56836 8.02734C7.45768 8.04036 7.36328 8.05013 7.28516 8.05664H5.2832C5.17904 8.0957 5.10091 8.14779 5.04883 8.21289C5.00326 8.27799 4.9707 8.35286 4.95117 8.4375C4.93164 8.51562 4.91862 8.60026 4.91211 8.69141C4.91211 8.77604 4.91211 8.86393 4.91211 8.95508C4.91211 8.97461 4.90885 9.01693 4.90234 9.08203C4.89583 9.14714 4.88932 9.21875 4.88281 9.29688C4.8763 9.36849 4.86979 9.43685 4.86328 9.50195C4.85677 9.56706 4.85352 9.60938 4.85352 9.62891V9.79492C4.85352 9.86654 4.85352 9.92513 4.85352 9.9707C4.86003 10.0098 4.87956 10.0651 4.91211 10.1367C4.91211 10.1628 4.91211 10.2051 4.91211 10.2637C4.91211 10.3158 4.91211 10.3743 4.91211 10.4395C4.91862 10.498 4.92188 10.5534 4.92188 10.6055C4.92188 10.6576 4.92188 10.6934 4.92188 10.7129C4.92188 10.9147 4.90885 11.1133 4.88281 11.3086C4.86328 11.5039 4.85352 11.6992 4.85352 11.8945V11.9238C4.85352 11.9368 4.85677 11.9694 4.86328 12.0215C4.86979 12.0671 4.87305 12.0964 4.87305 12.1094C4.89258 12.4805 4.91536 12.8158 4.94141 13.1152C4.96745 13.4147 5.03581 13.7174 5.14648 14.0234C5.15299 14.056 5.1888 14.0951 5.25391 14.1406C5.31901 14.1797 5.39062 14.2188 5.46875 14.2578C5.55339 14.2969 5.63477 14.3294 5.71289 14.3555C5.79102 14.3815 5.84961 14.3945 5.88867 14.3945H6.2793C6.44857 14.3945 6.61458 14.388 6.77734 14.375C6.9401 14.3555 7.10612 14.3457 7.27539 14.3457C7.32096 14.3457 7.37305 14.362 7.43164 14.3945C7.49023 14.4271 7.54232 14.4694 7.58789 14.5215C7.63997 14.5736 7.68229 14.6289 7.71484 14.6875C7.7474 14.7461 7.76367 14.7982 7.76367 14.8438C7.76367 14.9089 7.75716 14.9642 7.74414 15.0098C7.73112 15.0618 7.68229 15.1042 7.59766 15.1367H7.22656H6.8457C6.80664 15.1367 6.73828 15.1335 6.64062 15.127C6.54948 15.1204 6.45182 15.1107 6.34766 15.0977C6.24349 15.0911 6.14583 15.0814 6.05469 15.0684C5.97005 15.0618 5.91471 15.0553 5.88867 15.0488C5.87565 15.0488 5.85286 15.0456 5.82031 15.0391C5.79427 15.0326 5.76497 15.026 5.73242 15.0195C5.69987 15.0195 5.66732 15.0163 5.63477 15.0098C5.60872 15.0033 5.59245 15 5.58594 15H5.51758C5.36784 15.013 5.2181 15.0228 5.06836 15.0293C4.91862 15.0358 4.76237 15.0488 4.59961 15.0684C4.58008 15.0684 4.54102 15.0651 4.48242 15.0586C4.43034 15.0521 4.37174 15.0423 4.30664 15.0293C4.24805 15.0228 4.18945 15.0163 4.13086 15.0098C4.07878 15.0033 4.03971 15 4.01367 15H3.55469ZM21.3418 15C21.2897 15 21.2148 15 21.1172 15C21.026 15 20.9316 15 20.834 15C20.7363 15.0065 20.6452 15.0098 20.5605 15.0098C20.4824 15.0163 20.4336 15.0228 20.4141 15.0293C20.3685 15.0358 20.3229 15.0423 20.2773 15.0488C20.2383 15.0553 20.1992 15.0618 20.1602 15.0684C20.1211 15.0749 20.0885 15.0814 20.0625 15.0879C20.0495 15.0879 20.0267 15.0911 19.9941 15.0977C19.9681 15.1042 19.9388 15.1107 19.9062 15.1172C19.8737 15.1302 19.8444 15.14 19.8184 15.1465C19.7923 15.153 19.776 15.1562 19.7695 15.1562H19.1836C19.1055 15.1562 19.0339 15.1595 18.9688 15.166C18.9102 15.179 18.8516 15.1855 18.793 15.1855C18.6302 15.1855 18.4772 15.1595 18.334 15.1074C18.1973 15.0618 18.0736 14.9577 17.9629 14.7949C18.0085 14.6777 18.0703 14.5996 18.1484 14.5605C18.2331 14.5215 18.3307 14.4759 18.4414 14.4238C18.4479 14.4173 18.4707 14.4043 18.5098 14.3848C18.5553 14.3587 18.6009 14.3327 18.6465 14.3066C18.6986 14.2806 18.7441 14.2578 18.7832 14.2383C18.8288 14.2188 18.8548 14.209 18.8613 14.209H19.0762C19.0957 14.209 19.125 14.1992 19.1641 14.1797C19.2096 14.1536 19.2389 14.1406 19.252 14.1406C19.278 14.1276 19.3268 14.1146 19.3984 14.1016C19.4766 14.082 19.5579 14.0625 19.6426 14.043C19.7337 14.0234 19.8184 14.0072 19.8965 13.9941C19.9746 13.9811 20.0299 13.9714 20.0625 13.9648C20.2253 13.8477 20.3294 13.7207 20.375 13.584C20.4206 13.4473 20.4694 13.278 20.5215 13.0762V11.2988C20.5215 11.2793 20.5247 11.2533 20.5312 11.2207C20.5378 11.1816 20.5443 11.1426 20.5508 11.1035C20.5638 11.0579 20.5736 11.0189 20.5801 10.9863C20.5866 10.9473 20.5931 10.918 20.5996 10.8984V8.26172C20.6126 7.84505 20.6224 7.50651 20.6289 7.24609C20.6419 6.97917 20.6517 6.76758 20.6582 6.61133C20.6712 6.44857 20.6777 6.32487 20.6777 6.24023C20.6842 6.1556 20.6875 6.08398 20.6875 6.02539C20.6875 5.89518 20.6842 5.76497 20.6777 5.63477C20.6712 5.49805 20.668 5.41667 20.668 5.39062C20.6875 5.07812 20.7168 4.78841 20.7559 4.52148C20.8014 4.24805 20.8242 3.95508 20.8242 3.64258C20.8242 3.50586 20.821 3.38216 20.8145 3.27148C20.8145 3.1543 20.8079 3.04688 20.7949 2.94922C20.7819 2.84505 20.7591 2.74089 20.7266 2.63672C20.7005 2.53255 20.6582 2.41862 20.5996 2.29492C20.5801 2.26888 20.541 2.24284 20.4824 2.2168C20.4303 2.18424 20.3717 2.15495 20.3066 2.12891C20.248 2.09635 20.1895 2.07031 20.1309 2.05078C20.0788 2.02474 20.0397 2.01172 20.0137 2.01172C19.9941 2.00521 19.9551 1.9987 19.8965 1.99219C19.8379 1.97917 19.7728 1.9694 19.7012 1.96289C19.6361 1.95638 19.571 1.94987 19.5059 1.94336C19.4473 1.93685 19.4115 1.93034 19.3984 1.92383C19.3919 1.92383 19.3561 1.91732 19.291 1.9043C19.2324 1.88477 19.1966 1.86849 19.1836 1.85547H18.832C18.7344 1.85547 18.6693 1.85221 18.6367 1.8457C18.6042 1.83919 18.5488 1.81966 18.4707 1.78711C18.3796 1.75456 18.2982 1.70898 18.2266 1.65039C18.1549 1.58529 18.1191 1.52344 18.1191 1.46484V1.34766C18.1908 1.21094 18.2786 1.1263 18.3828 1.09375C18.487 1.0612 18.5944 1.04492 18.7051 1.04492C18.7572 1.04492 18.8027 1.04818 18.8418 1.05469C18.8809 1.0612 18.9199 1.06445 18.959 1.06445C19.0046 1.06445 19.0566 1.05143 19.1152 1.02539C19.1738 0.999349 19.2194 0.976562 19.252 0.957031H19.3496H19.457C19.4896 0.970052 19.5612 0.983073 19.6719 0.996094C19.7826 1.00911 19.8997 1.02539 20.0234 1.04492C20.1536 1.05794 20.2741 1.07096 20.3848 1.08398C20.4954 1.09049 20.5671 1.09375 20.5996 1.09375C20.6712 1.10677 20.8014 1.12305 20.9902 1.14258C21.1855 1.1556 21.3874 1.17188 21.5957 1.19141C21.8105 1.20443 22.0124 1.21745 22.2012 1.23047C22.39 1.24349 22.5202 1.25 22.5918 1.25C22.9043 1.17188 23.207 1.1263 23.5 1.11328C23.7995 1.10026 24.0957 1.09375 24.3887 1.09375H25.2285C25.3001 1.14583 25.3424 1.21419 25.3555 1.29883C25.375 1.37695 25.3848 1.44857 25.3848 1.51367C25.3848 1.61784 25.3587 1.69596 25.3066 1.74805C25.2611 1.80013 25.1992 1.83919 25.1211 1.86523C25.0495 1.88477 24.9714 1.89779 24.8867 1.9043C24.8021 1.91081 24.7207 1.91732 24.6426 1.92383C24.597 1.92383 24.5156 1.93359 24.3984 1.95312C24.2878 1.97266 24.2096 1.99219 24.1641 2.01172C24.1576 2.01172 24.1413 2.01823 24.1152 2.03125C24.0892 2.04427 24.0599 2.06055 24.0273 2.08008C23.9948 2.0931 23.9622 2.10938 23.9297 2.12891C23.9036 2.14193 23.8874 2.15169 23.8809 2.1582C23.8743 2.1582 23.8548 2.16146 23.8223 2.16797C23.7962 2.17448 23.7669 2.18099 23.7344 2.1875C23.7018 2.19401 23.6693 2.20378 23.6367 2.2168C23.6042 2.22982 23.5846 2.23958 23.5781 2.24609C23.5651 2.24609 23.5456 2.24935 23.5195 2.25586C23.5 2.26237 23.4772 2.26888 23.4512 2.27539L23.3535 2.29492C23.334 2.31445 23.3079 2.34049 23.2754 2.37305C23.2428 2.39909 23.2103 2.42839 23.1777 2.46094C23.1517 2.49349 23.1257 2.52279 23.0996 2.54883C23.0736 2.57487 23.0573 2.59115 23.0508 2.59766C23.0508 2.61068 23.0475 2.63672 23.041 2.67578C23.0345 2.71484 23.0247 2.76042 23.0117 2.8125C23.0052 2.85807 22.9987 2.90365 22.9922 2.94922C22.9857 2.98828 22.9824 3.01758 22.9824 3.03711C22.9759 3.11523 22.9694 3.25195 22.9629 3.44727C22.9629 3.64258 22.9596 3.84766 22.9531 4.0625C22.9531 4.27734 22.9531 4.47917 22.9531 4.66797C22.9531 4.85677 22.9531 4.99023 22.9531 5.06836L22.9336 5.30273V6.78711C22.9206 7.26888 22.9076 7.64974 22.8945 7.92969C22.888 8.20312 22.8783 8.41471 22.8652 8.56445C22.8587 8.71419 22.8522 8.82161 22.8457 8.88672C22.8392 8.94531 22.8359 8.99414 22.8359 9.0332C22.8164 9.19596 22.8034 9.35872 22.7969 9.52148C22.7904 9.68424 22.7806 9.85026 22.7676 10.0195C22.7611 10.026 22.7546 10.0488 22.748 10.0879C22.7415 10.1204 22.735 10.1595 22.7285 10.2051C22.722 10.2441 22.7155 10.2832 22.709 10.3223C22.7025 10.3548 22.6992 10.3776 22.6992 10.3906C22.6992 10.4232 22.7025 10.498 22.709 10.6152C22.7155 10.7259 22.722 10.8496 22.7285 10.9863C22.7415 11.1165 22.7513 11.2402 22.7578 11.3574C22.7643 11.4746 22.7676 11.5462 22.7676 11.5723C22.7676 11.6048 22.7643 11.6732 22.7578 11.7773C22.7513 11.8815 22.7415 11.9922 22.7285 12.1094C22.722 12.2266 22.7155 12.3372 22.709 12.4414C22.7025 12.5456 22.6992 12.6107 22.6992 12.6367V13.0762C22.6992 13.1738 22.6992 13.278 22.6992 13.3887C22.7057 13.4993 22.722 13.6068 22.748 13.7109C22.7806 13.8086 22.8262 13.8965 22.8848 13.9746C22.9434 14.0527 23.028 14.1081 23.1387 14.1406C23.1582 14.1471 23.1973 14.1536 23.2559 14.1602C23.321 14.1667 23.3893 14.1732 23.4609 14.1797C23.5391 14.1797 23.6107 14.1829 23.6758 14.1895C23.7474 14.196 23.793 14.2025 23.8125 14.209C23.8451 14.209 23.9036 14.222 23.9883 14.248C24.0729 14.2741 24.1608 14.3034 24.252 14.3359C24.3496 14.362 24.4408 14.3913 24.5254 14.4238C24.61 14.4499 24.6719 14.4727 24.7109 14.4922C24.75 14.5117 24.7728 14.541 24.7793 14.5801C24.7858 14.6126 24.7891 14.6452 24.7891 14.6777C24.7891 14.7689 24.7663 14.8503 24.7207 14.9219C24.6751 14.987 24.6198 15.0423 24.5547 15.0879C24.4896 15.14 24.4147 15.1855 24.3301 15.2246C24.252 15.2637 24.1803 15.2962 24.1152 15.3223H24.0273C23.9818 15.3158 23.8613 15.2962 23.666 15.2637C23.4772 15.2376 23.2721 15.2051 23.0508 15.166C22.8294 15.1335 22.6243 15.1009 22.4355 15.0684C22.2467 15.0423 22.1296 15.0293 22.084 15.0293C22.084 15.0228 22.0514 15.0163 21.9863 15.0098C21.9277 15.0098 21.8561 15.0065 21.7715 15C21.6934 15 21.612 15 21.5273 15C21.4492 15 21.3874 15 21.3418 15ZM32.752 14.6777C32.752 14.5475 32.8366 14.4466 33.0059 14.375C33.097 14.3229 33.1979 14.2904 33.3086 14.2773C33.4193 14.2643 33.5267 14.2578 33.6309 14.2578C33.6634 14.2578 33.696 14.2546 33.7285 14.248C33.7611 14.2415 33.7904 14.2383 33.8164 14.2383C33.849 14.2383 33.9173 14.2318 34.0215 14.2188C34.1257 14.2057 34.2331 14.1862 34.3438 14.1602C34.4023 14.1471 34.4577 14.1341 34.5098 14.1211C34.5684 14.1016 34.6139 14.0918 34.6465 14.0918C34.6986 14.0788 34.7637 14.0495 34.8418 14.0039C34.9264 13.9518 35.0046 13.8965 35.0762 13.8379C35.1543 13.7728 35.2194 13.7077 35.2715 13.6426C35.3301 13.571 35.3594 13.5059 35.3594 13.4473L35.3887 12.3145C35.3887 12.2038 35.3757 12.0768 35.3496 11.9336C35.3301 11.7904 35.3203 11.6634 35.3203 11.5527C35.3203 11.39 35.3301 11.2142 35.3496 11.0254C35.3757 10.8301 35.3887 10.651 35.3887 10.4883C35.3366 10.332 35.3366 10.1465 35.3887 9.93164V8.70117C35.3887 8.6556 35.3854 8.56771 35.3789 8.4375C35.3724 8.30729 35.3691 8.17057 35.3691 8.02734C35.3626 7.89062 35.3594 7.76367 35.3594 7.64648C35.3594 7.52279 35.3594 7.4349 35.3594 7.38281L35.3887 7.1582C35.4017 7.10612 35.4115 7.05078 35.418 6.99219C35.431 6.93359 35.4375 6.91081 35.4375 6.92383V6.80664V6.26953V5.9082V5.60547C35.431 5.59245 35.4212 5.56641 35.4082 5.52734C35.3952 5.48828 35.3822 5.45247 35.3691 5.41992C35.3691 5.4069 35.3659 5.40039 35.3594 5.40039C35.3594 5.39388 35.3594 5.38411 35.3594 5.37109C35.3594 5.35156 35.3529 5.30273 35.3398 5.22461C35.3268 5.14648 35.3203 5.0651 35.3203 4.98047C35.3138 4.88932 35.3073 4.8112 35.3008 4.74609C35.2943 4.68099 35.291 4.63542 35.291 4.60938C35.278 4.59635 35.265 4.57031 35.252 4.53125C35.2389 4.49219 35.2227 4.44661 35.2031 4.39453C35.1901 4.36198 35.1706 4.31966 35.1445 4.26758C35.125 4.21549 35.1217 4.19596 35.1348 4.20898C35.1217 4.16341 35.1087 4.12435 35.0957 4.0918C35.0892 4.05273 35.0794 4.01693 35.0664 3.98438C35.0404 3.84766 35.0078 3.73372 34.9688 3.64258C34.9297 3.55143 34.8451 3.4668 34.7148 3.38867C34.7018 3.38867 34.6725 3.37891 34.627 3.35938C34.5814 3.33984 34.5293 3.31706 34.4707 3.29102C34.4186 3.26497 34.3698 3.24219 34.3242 3.22266C34.2786 3.19661 34.2461 3.18034 34.2266 3.17383C34.2266 3.16081 34.2005 3.125 34.1484 3.06641C34.1029 3.0013 34.0671 2.94271 34.041 2.89062C34.028 2.8776 34.0182 2.85807 34.0117 2.83203C34.0052 2.80599 33.9987 2.7832 33.9922 2.76367C33.9792 2.73112 33.9694 2.70833 33.9629 2.69531C33.9564 2.67578 33.9531 2.65951 33.9531 2.64648C33.9466 2.63997 33.9368 2.63346 33.9238 2.62695C33.9108 2.62044 33.8913 2.60417 33.8652 2.57812C33.722 2.48047 33.5918 2.37305 33.4746 2.25586C33.3639 2.13216 33.2467 1.9987 33.123 1.85547C33.123 1.84245 33.1133 1.82617 33.0938 1.80664C33.0807 1.80664 33.0742 1.80339 33.0742 1.79688V1.78711C33.0872 1.78711 33.0807 1.7806 33.0547 1.76758C33.0286 1.75456 33.0026 1.73828 32.9766 1.71875C32.9505 1.69271 32.9212 1.67318 32.8887 1.66016C32.8561 1.64714 32.8333 1.63411 32.8203 1.62109L32.7422 1.50391C32.7096 1.47135 32.6771 1.43229 32.6445 1.38672C32.612 1.34115 32.5827 1.28906 32.5566 1.23047C32.6478 1.15885 32.7487 1.10352 32.8594 1.06445C32.9766 1.01888 33.1003 0.996094 33.2305 0.996094H33.3086C33.3997 1.00911 33.5625 1.02865 33.7969 1.05469C34.0312 1.07422 34.2754 1.09375 34.5293 1.11328C34.6725 1.1263 34.8125 1.13932 34.9492 1.15234C35.0924 1.15885 35.2227 1.16862 35.3398 1.18164C35.4635 1.18815 35.571 1.19792 35.6621 1.21094C35.7533 1.21745 35.8249 1.22396 35.877 1.23047C35.8965 1.24349 35.929 1.26628 35.9746 1.29883C36.0202 1.33138 36.0658 1.36719 36.1113 1.40625C36.1634 1.4388 36.209 1.47135 36.248 1.50391C36.2871 1.53646 36.3164 1.5625 36.3359 1.58203C36.362 1.67318 36.3783 1.72526 36.3848 1.73828C36.3913 1.7513 36.4043 1.75781 36.4238 1.75781C36.4368 1.77083 36.4727 1.80339 36.5312 1.85547C36.5898 1.90755 36.6257 1.94661 36.6387 1.97266C36.6517 1.97266 36.6745 1.98242 36.707 2.00195C36.7396 2.02148 36.7689 2.04753 36.7949 2.08008C36.8014 2.08008 36.8112 2.08659 36.8242 2.09961C36.8372 2.10612 36.8568 2.1224 36.8828 2.14844C36.9154 2.17448 36.9577 2.2168 37.0098 2.27539C37.0684 2.32747 37.1465 2.40234 37.2441 2.5C37.3027 2.54557 37.3385 2.58464 37.3516 2.61719C37.3906 2.6888 37.4134 2.73112 37.4199 2.74414C37.4264 2.75716 37.4297 2.77018 37.4297 2.7832C37.4427 2.80273 37.4622 2.8418 37.4883 2.90039C37.5143 2.95898 37.5404 3.02409 37.5664 3.0957C37.5924 3.16081 37.6152 3.22266 37.6348 3.28125C37.6543 3.33984 37.6673 3.37565 37.6738 3.38867C37.7064 3.47982 37.7552 3.54818 37.8203 3.59375C37.8919 3.63932 37.9668 3.6849 38.0449 3.73047C38.1165 3.76302 38.1882 3.80859 38.2598 3.86719C38.3314 3.91927 38.3835 3.97461 38.416 4.0332C38.429 4.05924 38.4421 4.08203 38.4551 4.10156C38.4681 4.12109 38.4876 4.16016 38.5137 4.21875C38.5527 4.27083 38.5983 4.32943 38.6504 4.39453C38.7025 4.45312 38.7904 4.54753 38.9141 4.67773C39.0378 4.80143 39.2103 4.9707 39.4316 5.18555C39.653 5.39388 39.9557 5.67383 40.3398 6.02539C40.3659 6.08398 40.3984 6.14583 40.4375 6.21094C40.4766 6.26953 40.5221 6.32812 40.5742 6.38672C40.737 6.53646 40.8509 6.71549 40.916 6.92383C41.0918 7.0931 41.2643 7.26888 41.4336 7.45117C41.6029 7.63346 41.7721 7.81901 41.9414 8.00781C42.2148 8.30078 42.4883 8.58724 42.7617 8.86719C43.0352 9.14714 43.3379 9.41081 43.6699 9.6582C43.6829 9.67773 43.7025 9.70378 43.7285 9.73633C43.7546 9.76888 43.7806 9.8112 43.8066 9.86328C43.8132 9.88932 43.8294 9.91536 43.8555 9.94141C43.888 9.96094 43.9206 9.99023 43.9531 10.0293C44.0703 10.1204 44.1745 10.2214 44.2656 10.332C44.3568 10.4427 44.4577 10.5566 44.5684 10.6738C44.653 10.765 44.7539 10.8561 44.8711 10.9473C44.9948 11.0384 45.1055 11.1263 45.2031 11.2109H45.3105H45.3594C45.3919 11.2109 45.4277 11.2077 45.4668 11.2012C45.5124 11.1947 45.5482 11.1784 45.5742 11.1523H45.6328C45.6393 11.1523 45.6491 11.1523 45.6621 11.1523C45.6751 11.1523 45.6849 11.1458 45.6914 11.1328C45.7435 11.1068 45.7988 11.0807 45.8574 11.0547C45.916 11.0286 45.9518 10.9863 45.9648 10.9277C45.9779 10.8952 45.9844 10.8561 45.9844 10.8105C45.9844 10.778 45.9779 10.7487 45.9648 10.7227C45.9518 10.6901 45.9421 10.6576 45.9355 10.625C45.9225 10.5794 45.9095 10.5339 45.8965 10.4883C45.8835 10.4427 45.8737 10.3939 45.8672 10.3418C45.8542 10.2962 45.8477 10.2539 45.8477 10.2148C45.8477 10.1693 45.8477 10.127 45.8477 10.0879C45.8346 9.67122 45.8118 9.25456 45.7793 8.83789C45.7533 8.41471 45.724 7.99154 45.6914 7.56836C45.6914 7.45117 45.6849 7.33724 45.6719 7.22656C45.6654 7.10938 45.6556 6.98568 45.6426 6.85547C45.6296 6.84245 45.6165 6.8099 45.6035 6.75781C45.597 6.70573 45.5872 6.64388 45.5742 6.57227C45.5742 6.53971 45.571 6.51042 45.5645 6.48438C45.5645 6.45833 45.5645 6.43555 45.5645 6.41602C45.5189 6.18815 45.4896 5.96029 45.4766 5.73242C45.4635 5.50456 45.4538 5.27018 45.4473 5.0293L45.3887 4.26758C45.3887 4.24154 45.3822 4.17643 45.3691 4.07227C45.3561 3.9681 45.3398 3.87695 45.3203 3.79883C45.3203 3.74674 45.3236 3.68164 45.3301 3.60352C45.3366 3.52539 45.3398 3.45052 45.3398 3.37891C45.3398 3.35286 45.3398 3.32682 45.3398 3.30078C45.3398 3.27474 45.3333 3.25521 45.3203 3.24219C45.3203 3.20964 45.3138 3.15755 45.3008 3.08594C45.2943 3.01432 45.291 2.95247 45.291 2.90039C45.265 2.88086 45.252 2.84831 45.252 2.80273L45.0859 2.63672C45.0534 2.60417 45.0176 2.56836 44.9785 2.5293C44.946 2.49023 44.9134 2.45768 44.8809 2.43164C44.8613 2.43164 44.8385 2.42513 44.8125 2.41211C44.7865 2.39909 44.7572 2.39258 44.7246 2.39258C44.6986 2.38607 44.679 2.38281 44.666 2.38281C44.653 2.36979 44.6335 2.34701 44.6074 2.31445C44.5814 2.2819 44.5521 2.24935 44.5195 2.2168C44.487 2.18424 44.4577 2.15495 44.4316 2.12891C44.4056 2.09635 44.3893 2.08008 44.3828 2.08008C44.2786 2.01497 44.1647 1.97591 44.041 1.96289C43.9238 1.94987 43.8001 1.94336 43.6699 1.94336H43.4648C43.3802 1.94336 43.2956 1.94336 43.2109 1.94336C43.1263 1.94336 43.0482 1.93685 42.9766 1.92383L42.7422 1.82617C42.6771 1.80013 42.638 1.78711 42.625 1.78711C42.5924 1.76758 42.5501 1.74154 42.498 1.70898C42.446 1.67643 42.3939 1.64062 42.3418 1.60156C42.2962 1.55599 42.2539 1.51042 42.2148 1.46484C42.1823 1.41927 42.166 1.38021 42.166 1.34766C42.166 1.32812 42.1725 1.29883 42.1855 1.25977C42.2051 1.2207 42.2246 1.18164 42.2441 1.14258C42.2637 1.10352 42.2832 1.07096 42.3027 1.04492C42.3288 1.01237 42.3516 0.996094 42.3711 0.996094H43.7383C43.8099 1.06771 43.8913 1.11003 43.9824 1.12305C44.0801 1.13607 44.1842 1.14909 44.2949 1.16211H44.3828C44.4089 1.16211 44.4772 1.16536 44.5879 1.17188C44.6986 1.17839 44.8158 1.1849 44.9395 1.19141C45.0697 1.19792 45.1868 1.20443 45.291 1.21094C45.4017 1.21745 45.4701 1.22396 45.4961 1.23047H48.0742C48.1849 1.25651 48.2663 1.28581 48.3184 1.31836C48.3704 1.35091 48.3965 1.42253 48.3965 1.5332C48.3965 1.67643 48.3672 1.79036 48.3086 1.875C48.2565 1.95312 48.1816 2.01172 48.084 2.05078C47.9928 2.08984 47.8854 2.11589 47.7617 2.12891C47.638 2.14193 47.5078 2.15169 47.3711 2.1582C47.2539 2.17122 47.14 2.18424 47.0293 2.19727C46.9186 2.20378 46.8145 2.22005 46.7168 2.24609C46.6191 2.27214 46.528 2.3112 46.4434 2.36328C46.3652 2.41536 46.3034 2.48698 46.2578 2.57812C46.2513 2.6237 46.2448 2.69206 46.2383 2.7832C46.2318 2.86784 46.2253 2.96549 46.2188 3.07617C46.2122 3.18685 46.2057 3.30404 46.1992 3.42773C46.1927 3.55143 46.1895 3.66862 46.1895 3.7793V4.33594V4.56055C46.1895 4.63216 46.1927 4.70378 46.1992 4.77539C46.2057 4.84701 46.2253 4.92188 46.2578 5C46.2708 5.05208 46.2839 5.10742 46.2969 5.16602C46.3099 5.22461 46.3164 5.29297 46.3164 5.37109V6.71875L46.2871 6.82617C46.2871 6.86523 46.2806 6.91081 46.2676 6.96289C46.2611 7.01497 46.2578 7.05729 46.2578 7.08984C46.2578 7.14193 46.2578 7.23633 46.2578 7.37305C46.2643 7.50977 46.2741 7.65299 46.2871 7.80273C46.2871 7.95247 46.2904 8.09245 46.2969 8.22266C46.3034 8.34635 46.3099 8.4375 46.3164 8.49609C46.3815 8.60677 46.4271 8.74674 46.4531 8.91602C46.4792 9.07878 46.4922 9.22526 46.4922 9.35547V9.42383C46.4922 9.43685 46.4922 9.44987 46.4922 9.46289C46.4922 9.47591 46.4857 9.51823 46.4727 9.58984C46.4727 9.60938 46.4661 9.64193 46.4531 9.6875C46.4466 9.72656 46.4303 9.79818 46.4043 9.90234C46.4043 9.91536 46.401 9.96745 46.3945 10.0586C46.388 10.1432 46.3815 10.2376 46.375 10.3418C46.362 10.4329 46.349 10.5208 46.3359 10.6055C46.3229 10.6901 46.3164 10.7487 46.3164 10.7812C46.3099 10.8203 46.2904 10.8822 46.2578 10.9668C46.2253 11.0449 46.1895 11.1296 46.1504 11.2207C46.1113 11.3053 46.0723 11.3835 46.0332 11.4551C45.9941 11.5267 45.9648 11.5755 45.9453 11.6016V11.709C45.9453 11.7741 45.9486 11.8294 45.9551 11.875C45.9616 11.9141 45.9876 11.9694 46.0332 12.041C46.0527 12.1322 46.0658 12.2266 46.0723 12.3242C46.0788 12.4154 46.082 12.5065 46.082 12.5977C46.082 12.6888 46.0788 12.7865 46.0723 12.8906C46.0658 12.9883 46.0527 13.0892 46.0332 13.1934C46.1113 13.3105 46.1569 13.4505 46.1699 13.6133C46.1829 13.7695 46.1895 13.9225 46.1895 14.0723C46.1895 14.1504 46.1829 14.2415 46.1699 14.3457C46.1634 14.4434 46.1439 14.5378 46.1113 14.6289C46.0788 14.7201 46.0299 14.7982 45.9648 14.8633C45.9062 14.9219 45.8216 14.9512 45.7109 14.9512C45.6068 14.9512 45.5124 14.9186 45.4277 14.8535C45.3431 14.7884 45.265 14.7201 45.1934 14.6484L45.0371 14.4922C45.0241 14.4727 44.998 14.4401 44.959 14.3945C44.9264 14.349 44.8906 14.3034 44.8516 14.2578C44.8125 14.2057 44.7734 14.1602 44.7344 14.1211C44.7018 14.0755 44.679 14.0462 44.666 14.0332C44.6465 14.0007 44.5846 13.916 44.4805 13.7793C44.3828 13.6426 44.2754 13.4961 44.1582 13.3398C44.0475 13.1836 43.9401 13.0371 43.8359 12.9004C43.7318 12.7637 43.6634 12.6758 43.6309 12.6367C43.6048 12.6172 43.5462 12.5651 43.4551 12.4805C43.3639 12.3893 43.2663 12.2819 43.1621 12.1582C43.0514 12.0605 42.944 11.9629 42.8398 11.8652C42.7422 11.7676 42.6868 11.696 42.6738 11.6504C42.6738 11.6439 42.6641 11.6341 42.6445 11.6211C42.6315 11.6016 42.6185 11.5788 42.6055 11.5527C42.5859 11.5397 42.5697 11.5169 42.5566 11.4844C42.5436 11.4518 42.5371 11.4421 42.5371 11.4551C42.4329 11.3184 42.2995 11.1751 42.1367 11.0254C41.974 10.8691 41.8242 10.7422 41.6875 10.6445C41.6745 10.6315 41.6484 10.6185 41.6094 10.6055C41.5768 10.5859 41.5475 10.5632 41.5215 10.5371C41.4889 10.5306 41.4629 10.5241 41.4434 10.5176C41.4303 10.5046 41.3945 10.472 41.3359 10.4199C41.3229 10.4199 41.3066 10.4102 41.2871 10.3906C41.2741 10.3711 41.2676 10.3548 41.2676 10.3418C41.2546 10.3418 41.2383 10.319 41.2188 10.2734C41.1992 10.2214 41.1829 10.1693 41.1699 10.1172L41.1309 10.0488C41.1178 10.0358 41.082 10.0033 41.0234 9.95117C40.9714 9.89258 40.9193 9.82422 40.8672 9.74609C40.8086 9.6875 40.75 9.62565 40.6914 9.56055C40.6393 9.49544 40.6068 9.45638 40.5938 9.44336C40.5221 9.37174 40.4635 9.29362 40.418 9.20898C40.3724 9.12435 40.3138 9.04297 40.2422 8.96484C40.1966 8.89974 40.1478 8.83464 40.0957 8.76953C40.0501 8.70443 39.998 8.64258 39.9395 8.58398L39.666 8.29102C39.3926 8.06315 39.1257 7.83854 38.8652 7.61719C38.6048 7.39583 38.3411 7.17122 38.0742 6.94336C38.0677 6.93685 38.0482 6.91732 38.0156 6.88477C37.9831 6.8457 37.9473 6.80664 37.9082 6.76758C37.8691 6.72852 37.8301 6.69271 37.791 6.66016C37.7585 6.62109 37.7357 6.5918 37.7227 6.57227C37.5143 6.35091 37.3125 6.13932 37.1172 5.9375C36.9219 5.73568 36.707 5.54036 36.4727 5.35156C36.4661 5.33854 36.4401 5.32552 36.3945 5.3125C36.375 5.30599 36.3555 5.30273 36.3359 5.30273C36.3099 5.30273 36.2806 5.30273 36.248 5.30273C36.2155 5.30273 36.1992 5.30924 36.1992 5.32227C36.1992 5.32878 36.1927 5.33203 36.1797 5.33203C36.1667 5.33203 36.1536 5.34831 36.1406 5.38086C36.1341 5.41341 36.1309 5.43945 36.1309 5.45898V6.34766C36.1374 6.36719 36.1439 6.42904 36.1504 6.5332C36.1569 6.63086 36.1634 6.73828 36.1699 6.85547C36.1764 6.97266 36.1829 7.08333 36.1895 7.1875C36.196 7.29167 36.1992 7.35677 36.1992 7.38281V9.02344L36.2383 9.27734C36.2383 9.3099 36.2383 9.33919 36.2383 9.36523C36.2383 9.39128 36.2415 9.41732 36.248 9.44336C36.2546 9.4694 36.2611 9.49544 36.2676 9.52148V10.0293L36.3359 10.1465V10.7812C36.3359 10.7943 36.3327 10.8366 36.3262 10.9082C36.3262 10.9733 36.3392 11.0417 36.3652 11.1133C36.3848 11.1849 36.401 11.2598 36.4141 11.3379C36.4271 11.416 36.4336 11.4486 36.4336 11.4355C36.4531 11.5527 36.4629 11.6699 36.4629 11.7871C36.4694 11.8978 36.4727 12.0182 36.4727 12.1484C36.4727 12.3242 36.4857 12.5033 36.5117 12.6855C36.5443 12.8678 36.5866 13.0436 36.6387 13.2129C36.6582 13.2389 36.6973 13.2845 36.7559 13.3496C36.8145 13.4082 36.873 13.4733 36.9316 13.5449C36.9967 13.61 37.0586 13.6719 37.1172 13.7305C37.1758 13.7891 37.2148 13.8281 37.2344 13.8477C37.2344 13.8542 37.2604 13.8704 37.3125 13.8965C37.3646 13.9225 37.4232 13.9551 37.4883 13.9941C37.5599 14.0267 37.6315 14.0592 37.7031 14.0918C37.7812 14.1243 37.8431 14.1504 37.8887 14.1699C37.9147 14.1829 37.9505 14.1992 37.9961 14.2188C38.0482 14.2318 38.0807 14.2383 38.0938 14.2383C38.1393 14.2448 38.2142 14.2546 38.3184 14.2676C38.429 14.2806 38.543 14.2936 38.6602 14.3066C38.7773 14.3197 38.888 14.3327 38.9922 14.3457C39.0964 14.3587 39.168 14.3685 39.207 14.375C39.2135 14.375 39.2168 14.3783 39.2168 14.3848C39.2233 14.3848 39.2298 14.3848 39.2363 14.3848C39.2428 14.3913 39.2493 14.3945 39.2559 14.3945C39.3275 14.4466 39.3926 14.4987 39.4512 14.5508C39.5163 14.6029 39.5488 14.6745 39.5488 14.7656C39.5488 14.8503 39.5228 14.9154 39.4707 14.9609C39.4251 15 39.3665 15.0358 39.2949 15.0684C39.2493 15.0684 39.1875 15.0716 39.1094 15.0781C39.0312 15.0846 38.9466 15.0879 38.8555 15.0879H38.4355C38.2272 15.0879 38.0254 15.0814 37.8301 15.0684C37.6348 15.0553 37.4395 15.0488 37.2441 15.0488C37.0423 15.0358 36.8405 15.0228 36.6387 15.0098C36.4434 15.0033 36.235 15 36.0137 15H35.0664C34.9948 15.013 34.8874 15.0195 34.7441 15.0195C34.6074 15.026 34.4577 15.0358 34.2949 15.0488C34.1257 15.0488 33.9661 15.0521 33.8164 15.0586C33.6732 15.0651 33.5723 15.0684 33.5137 15.0684C33.5137 15.0814 33.4779 15.0977 33.4062 15.1172C33.3411 15.1432 33.2923 15.1562 33.2598 15.1562C33.2207 15.1562 33.1719 15.14 33.1133 15.1074C33.0547 15.0749 32.9961 15.0358 32.9375 14.9902C32.8854 14.9382 32.8398 14.8861 32.8008 14.834C32.7682 14.7754 32.752 14.7233 32.752 14.6777ZM59.6797 14.9707H59.6113C59.5788 14.9772 59.5137 14.987 59.416 15C59.3184 15.0195 59.2533 15.0358 59.2207 15.0488H56.4668C56.4342 15.0488 56.3952 15.0358 56.3496 15.0098C56.3105 14.9837 56.2715 14.9512 56.2324 14.9121C56.1934 14.873 56.1608 14.834 56.1348 14.7949C56.1087 14.7559 56.0957 14.7233 56.0957 14.6973C56.0957 14.6777 56.112 14.6582 56.1445 14.6387C56.1836 14.6191 56.2259 14.6029 56.2715 14.5898C56.3171 14.5703 56.3594 14.5573 56.3984 14.5508C56.4375 14.5378 56.4603 14.5312 56.4668 14.5312C56.6556 14.4401 56.8314 14.3783 56.9941 14.3457C57.1634 14.3066 57.3424 14.2871 57.5312 14.2871H57.7363C57.7624 14.2741 57.7917 14.2448 57.8242 14.1992C57.8568 14.1471 57.8796 14.1048 57.8926 14.0723C57.8926 14.0527 57.8958 14.0137 57.9023 13.9551C57.9154 13.8965 57.9251 13.8379 57.9316 13.7793C57.9382 13.7142 57.9447 13.6523 57.9512 13.5938C57.9577 13.5352 57.9609 13.4961 57.9609 13.4766V12.6367C57.9609 12.6302 57.9642 12.6074 57.9707 12.5684C57.9772 12.5228 57.9837 12.4772 57.9902 12.4316C58.0033 12.3796 58.013 12.334 58.0195 12.2949C58.0326 12.2493 58.0391 12.2233 58.0391 12.2168V12.1582V12.1484C57.9674 11.7188 57.9251 11.3021 57.9121 10.8984C57.9056 10.4883 57.8991 10.0749 57.8926 9.6582C57.8861 9.54753 57.8796 9.38477 57.873 9.16992C57.8665 8.95508 57.86 8.73698 57.8535 8.51562C57.847 8.29427 57.8372 8.09245 57.8242 7.91016C57.8177 7.72786 57.8112 7.61393 57.8047 7.56836C57.8047 7.55534 57.8014 7.51953 57.7949 7.46094C57.7884 7.40234 57.7786 7.34049 57.7656 7.27539C57.7591 7.20378 57.7526 7.13867 57.7461 7.08008C57.7396 7.02148 57.7363 6.98568 57.7363 6.97266C57.7363 6.93359 57.7428 6.83268 57.7559 6.66992C57.7689 6.50716 57.7852 6.33464 57.8047 6.15234C57.8242 5.96354 57.8405 5.78776 57.8535 5.625C57.873 5.46224 57.8861 5.36133 57.8926 5.32227V4.83398V4.35547C57.8926 4.34245 57.8763 4.30339 57.8438 4.23828C57.8177 4.17318 57.8047 4.13411 57.8047 4.12109V3.52539C57.8047 3.50586 57.8014 3.4668 57.7949 3.4082C57.7884 3.34961 57.7786 3.28776 57.7656 3.22266C57.7591 3.15755 57.7526 3.09896 57.7461 3.04688C57.7396 2.98828 57.7363 2.95247 57.7363 2.93945C57.7298 2.84831 57.7168 2.74414 57.6973 2.62695C57.6777 2.50977 57.6452 2.39909 57.5996 2.29492C57.554 2.18424 57.4954 2.0931 57.4238 2.02148C57.3522 1.94336 57.2611 1.90104 57.1504 1.89453H56.4668C56.4082 1.88151 56.3464 1.85547 56.2812 1.81641C56.2161 1.77083 56.151 1.72201 56.0859 1.66992C56.0208 1.61133 55.9622 1.55599 55.9102 1.50391C55.8581 1.45182 55.819 1.40625 55.793 1.36719V1.31836V1.2793C55.806 1.2793 55.8158 1.27279 55.8223 1.25977C55.8353 1.24023 55.8483 1.22396 55.8613 1.21094H57.5508H59.2207C59.2402 1.21094 59.2858 1.21419 59.3574 1.2207C59.4355 1.22721 59.5169 1.23698 59.6016 1.25C59.6862 1.25651 59.7643 1.26302 59.8359 1.26953C59.9141 1.27604 59.9629 1.2793 59.9824 1.2793H60.1387C60.2298 1.2793 60.3177 1.26953 60.4023 1.25C60.4935 1.22396 60.5846 1.21094 60.6758 1.21094H60.7246C60.7507 1.21745 60.7865 1.22396 60.832 1.23047C60.8841 1.23698 60.9329 1.24349 60.9785 1.25C61.0306 1.25651 61.0729 1.26302 61.1055 1.26953C61.1445 1.27604 61.1641 1.2793 61.1641 1.2793C61.1836 1.2793 61.2031 1.29232 61.2227 1.31836C61.2422 1.33789 61.252 1.35417 61.252 1.36719C61.2454 1.38672 61.2357 1.40625 61.2227 1.42578C61.2096 1.4388 61.1999 1.45508 61.1934 1.47461C61.1868 1.49414 61.1771 1.50716 61.1641 1.51367C61.0859 1.64388 60.9948 1.73503 60.8906 1.78711C60.7865 1.83268 60.6758 1.86849 60.5586 1.89453C60.4479 1.91406 60.334 1.93034 60.2168 1.94336C60.1061 1.95638 60.0052 1.99219 59.9141 2.05078C59.8229 2.10286 59.748 2.1875 59.6895 2.30469C59.6374 2.42188 59.6113 2.5944 59.6113 2.82227V2.87109C59.6113 2.89062 59.6146 2.9362 59.6211 3.00781C59.6276 3.07292 59.6341 3.14779 59.6406 3.23242C59.6536 3.31706 59.6634 3.39518 59.6699 3.4668C59.6764 3.5319 59.6797 3.57422 59.6797 3.59375V4.72656C59.6797 4.74609 59.6829 4.80469 59.6895 4.90234C59.7025 4.99349 59.7122 5.0944 59.7188 5.20508C59.7318 5.31576 59.7415 5.41992 59.748 5.51758C59.7611 5.61523 59.7676 5.68034 59.7676 5.71289V6.66992C59.7676 6.68294 59.7708 6.70573 59.7773 6.73828C59.7839 6.76432 59.7904 6.79362 59.7969 6.82617C59.8099 6.85872 59.8197 6.89128 59.8262 6.92383C59.8327 6.94987 59.8359 6.96615 59.8359 6.97266C59.849 7.03776 59.8555 7.10286 59.8555 7.16797C59.8555 7.23307 59.8587 7.29167 59.8652 7.34375C59.8783 7.39583 59.901 7.43815 59.9336 7.4707C59.9661 7.50326 60.0215 7.51953 60.0996 7.51953C60.1582 7.51953 60.2103 7.50326 60.2559 7.4707C60.3014 7.43164 60.3405 7.38932 60.373 7.34375C60.4121 7.29167 60.4447 7.23958 60.4707 7.1875C60.4967 7.12891 60.526 7.08008 60.5586 7.04102C60.7083 6.87826 60.8451 6.72852 60.9688 6.5918C61.099 6.44857 61.2194 6.30859 61.3301 6.17188C61.4408 6.02865 61.5482 5.87891 61.6523 5.72266C61.763 5.5599 61.877 5.38086 61.9941 5.18555C62.0072 5.16602 62.0202 5.13021 62.0332 5.07812C62.0527 5.01953 62.0625 4.98047 62.0625 4.96094C62.0885 4.92839 62.1341 4.87305 62.1992 4.79492C62.2708 4.7168 62.3424 4.63542 62.4141 4.55078C62.4857 4.45964 62.5508 4.375 62.6094 4.29688C62.6745 4.21875 62.7168 4.16016 62.7363 4.12109C62.7428 4.11458 62.7526 4.09505 62.7656 4.0625C62.7786 4.02995 62.7949 3.9974 62.8145 3.96484C62.834 3.93229 62.8503 3.90299 62.8633 3.87695C62.8763 3.8444 62.8861 3.82487 62.8926 3.81836C62.9512 3.72721 63.0098 3.64258 63.0684 3.56445C63.1335 3.47982 63.1888 3.39844 63.2344 3.32031C63.2865 3.23568 63.3288 3.14779 63.3613 3.05664C63.3939 2.95898 63.4102 2.85156 63.4102 2.73438V2.5C63.3971 2.47396 63.3646 2.4349 63.3125 2.38281C63.2669 2.32422 63.2148 2.26562 63.1562 2.20703C63.1042 2.14844 63.0521 2.09635 63 2.05078C62.9479 2.00521 62.9121 1.97266 62.8926 1.95312C62.847 1.91406 62.7884 1.88477 62.7168 1.86523C62.6452 1.83919 62.5768 1.81315 62.5117 1.78711C62.4466 1.75456 62.388 1.71549 62.3359 1.66992C62.2904 1.62435 62.2676 1.5625 62.2676 1.48438C62.2676 1.41927 62.2871 1.3737 62.3262 1.34766C62.3717 1.3151 62.4238 1.29232 62.4824 1.2793C62.541 1.26628 62.6029 1.25651 62.668 1.25C62.7331 1.24349 62.7852 1.23047 62.8242 1.21094C62.8568 1.22396 62.9219 1.23372 63.0195 1.24023C63.1172 1.24674 63.2311 1.25 63.3613 1.25C63.4785 1.25 63.5892 1.24674 63.6934 1.24023C63.804 1.23372 63.8854 1.22396 63.9375 1.21094C63.9505 1.21094 63.9798 1.20768 64.0254 1.20117C64.071 1.19466 64.1165 1.18815 64.1621 1.18164C64.2142 1.16862 64.2598 1.15885 64.2988 1.15234C64.3444 1.14583 64.3704 1.14258 64.377 1.14258C64.3965 1.14258 64.4388 1.14583 64.5039 1.15234C64.569 1.15885 64.6406 1.16862 64.7188 1.18164C64.7969 1.18815 64.8685 1.19466 64.9336 1.20117C65.0052 1.20768 65.0508 1.21094 65.0703 1.21094H65.5586H66.0371C66.1087 1.15234 66.1999 1.11328 66.3105 1.09375C66.4212 1.07422 66.5319 1.06445 66.6426 1.06445C66.7272 1.06445 66.8021 1.06771 66.8672 1.07422C66.9388 1.07422 67.0104 1.07422 67.082 1.07422H67.4727C67.4792 1.07422 67.5052 1.08073 67.5508 1.09375C67.5964 1.10677 67.6452 1.11979 67.6973 1.13281C67.7493 1.14583 67.8014 1.16211 67.8535 1.18164C67.9121 1.19466 67.9544 1.20443 67.9805 1.21094C67.987 1.21094 67.9967 1.22396 68.0098 1.25C68.0228 1.26953 68.0326 1.2793 68.0391 1.2793V1.31836C68.0391 1.38997 68.026 1.44531 68 1.48438C67.974 1.52344 67.9382 1.55599 67.8926 1.58203C67.8535 1.60156 67.8079 1.61784 67.7559 1.63086C67.7038 1.63737 67.6517 1.64388 67.5996 1.65039C67.3522 1.70898 67.0755 1.76432 66.7695 1.81641C66.4701 1.86849 66.1966 1.93685 65.9492 2.02148C65.9232 2.03451 65.8743 2.0638 65.8027 2.10938C65.7311 2.14844 65.6888 2.17773 65.6758 2.19727C65.6693 2.19727 65.6497 2.20703 65.6172 2.22656C65.5846 2.24609 65.5521 2.26888 65.5195 2.29492C65.487 2.31445 65.4544 2.33724 65.4219 2.36328C65.3958 2.38281 65.3796 2.39258 65.373 2.39258C65.3535 2.4056 65.3145 2.42839 65.2559 2.46094C65.1973 2.48698 65.1322 2.51953 65.0605 2.55859C64.9954 2.59115 64.9336 2.6237 64.875 2.65625C64.8164 2.68229 64.7806 2.69857 64.7676 2.70508C64.7546 2.70508 64.7383 2.71484 64.7188 2.73438C64.7057 2.75391 64.6927 2.77018 64.6797 2.7832C64.6602 2.82878 64.6374 2.86458 64.6113 2.89062C64.5918 2.92318 64.5723 2.94922 64.5527 2.96875C64.5397 2.98828 64.5332 3.0013 64.5332 3.00781C64.5202 3.02734 64.4876 3.06315 64.4355 3.11523C64.3835 3.16081 64.3281 3.21289 64.2695 3.27148C64.2109 3.32357 64.1556 3.37565 64.1035 3.42773C64.0514 3.47331 64.0189 3.50586 64.0059 3.52539C63.9017 3.64258 63.8073 3.75651 63.7227 3.86719C63.6445 3.97135 63.5599 4.07552 63.4688 4.17969C63.3841 4.27734 63.2897 4.37174 63.1855 4.46289C63.0814 4.55404 62.9609 4.64193 62.8242 4.72656C62.8047 4.83724 62.7689 4.92839 62.7168 5C62.6712 5.07161 62.6159 5.13672 62.5508 5.19531C62.4922 5.2474 62.4271 5.29948 62.3555 5.35156C62.2839 5.40365 62.2155 5.46549 62.1504 5.53711C62.1048 5.58268 62.0462 5.64779 61.9746 5.73242C61.903 5.81055 61.8346 5.89518 61.7695 5.98633C61.7044 6.07096 61.6491 6.1556 61.6035 6.24023C61.5579 6.32487 61.5352 6.39648 61.5352 6.45508C61.5352 6.49414 61.5384 6.52344 61.5449 6.54297C61.5449 6.5625 61.5482 6.58203 61.5547 6.60156C61.5612 6.61458 61.5807 6.63737 61.6133 6.66992C61.6523 6.70247 61.6914 6.74154 61.7305 6.78711C61.776 6.82617 61.8184 6.86523 61.8574 6.9043C61.8965 6.93685 61.9193 6.95964 61.9258 6.97266C61.9323 6.98568 61.9453 7.01497 61.9648 7.06055C61.9909 7.09961 62.0137 7.14518 62.0332 7.19727C62.0592 7.24284 62.082 7.28841 62.1016 7.33398C62.1211 7.37305 62.1374 7.39583 62.1504 7.40234C62.1569 7.41536 62.1764 7.44466 62.209 7.49023C62.248 7.53581 62.2871 7.58464 62.3262 7.63672C62.3717 7.6888 62.4108 7.73763 62.4434 7.7832C62.4824 7.82878 62.5085 7.85807 62.5215 7.87109C62.528 7.8776 62.541 7.90039 62.5605 7.93945C62.5801 7.97852 62.6029 8.02083 62.6289 8.06641C62.6549 8.10547 62.6777 8.14453 62.6973 8.18359C62.7168 8.21615 62.7298 8.23568 62.7363 8.24219C62.7428 8.2487 62.7559 8.26823 62.7754 8.30078C62.8014 8.32682 62.8242 8.35612 62.8438 8.38867C62.8698 8.42122 62.8926 8.45378 62.9121 8.48633C62.9382 8.51237 62.9577 8.5319 62.9707 8.54492C62.9837 8.56445 63.0228 8.61328 63.0879 8.69141C63.1595 8.76953 63.2344 8.85417 63.3125 8.94531C63.3906 9.03646 63.4622 9.12435 63.5273 9.20898C63.5924 9.28711 63.6348 9.33594 63.6543 9.35547C63.7454 9.49219 63.8366 9.64844 63.9277 9.82422C64.0189 9.99349 64.123 10.1432 64.2402 10.2734C64.2533 10.293 64.2891 10.332 64.3477 10.3906C64.4062 10.4427 64.4681 10.5013 64.5332 10.5664C64.6048 10.6315 64.6699 10.6901 64.7285 10.7422C64.7871 10.7943 64.8229 10.8268 64.8359 10.8398C64.8424 10.8529 64.8522 10.8822 64.8652 10.9277C64.8783 10.9733 64.8913 11.0026 64.9043 11.0156C64.9173 11.0156 64.9368 11.0319 64.9629 11.0645C64.9954 11.0905 65.028 11.1198 65.0605 11.1523C65.0996 11.1849 65.1322 11.2174 65.1582 11.25C65.1842 11.276 65.2005 11.2923 65.207 11.2988C65.2135 11.3118 65.2266 11.3411 65.2461 11.3867C65.2721 11.4323 65.2982 11.4811 65.3242 11.5332C65.3503 11.5853 65.373 11.6341 65.3926 11.6797C65.4186 11.7253 65.4349 11.7513 65.4414 11.7578C65.474 11.8099 65.5163 11.8815 65.5684 11.9727C65.627 12.0573 65.6855 12.1452 65.7441 12.2363C65.8092 12.3275 65.8711 12.4121 65.9297 12.4902C65.9883 12.5618 66.0436 12.6107 66.0957 12.6367C66.1087 12.6497 66.1445 12.666 66.2031 12.6855C66.2682 12.6986 66.3073 12.7083 66.3203 12.7148C66.3333 12.7148 66.3496 12.7279 66.3691 12.7539C66.3952 12.7734 66.4082 12.7897 66.4082 12.8027C66.5775 13.0111 66.7533 13.2064 66.9355 13.3887C67.1178 13.5645 67.3132 13.7174 67.5215 13.8477C67.528 13.8542 67.5508 13.8639 67.5898 13.877C67.6289 13.89 67.668 13.9062 67.707 13.9258C67.7526 13.9453 67.7949 13.9616 67.834 13.9746C67.873 13.9876 67.8991 13.9974 67.9121 14.0039C67.9121 14.0104 67.9219 14.0202 67.9414 14.0332C67.9609 14.0462 67.9837 14.0625 68.0098 14.082C68.0358 14.0951 68.0586 14.1081 68.0781 14.1211C68.1042 14.1341 68.1204 14.1406 68.127 14.1406C68.1921 14.1797 68.3027 14.2155 68.459 14.248C68.6217 14.2741 68.7845 14.3099 68.9473 14.3555C69.11 14.401 69.2533 14.4629 69.377 14.541C69.5007 14.6126 69.5625 14.7135 69.5625 14.8438C69.5625 14.8633 69.5592 14.8861 69.5527 14.9121C69.5462 14.9382 69.543 14.9577 69.543 14.9707C69.3737 15.0098 69.2142 15.0326 69.0645 15.0391C68.9147 15.0456 68.7552 15.0488 68.5859 15.0488C68.4492 15.0488 68.2995 15.0456 68.1367 15.0391C67.974 15.0326 67.8405 15.0098 67.7363 14.9707H65.8809C65.7051 14.9707 65.5358 14.9023 65.373 14.7656C65.2168 14.6289 65.0866 14.4922 64.9824 14.3555C64.9824 14.349 64.9629 14.3197 64.9238 14.2676C64.8913 14.209 64.849 14.1471 64.7969 14.082C64.7513 14.0104 64.7025 13.9388 64.6504 13.8672C64.5983 13.7956 64.5592 13.7402 64.5332 13.7012C64.4421 13.5514 64.3411 13.4115 64.2305 13.2812C64.1198 13.151 64.0221 13.0143 63.9375 12.8711C63.931 12.8646 63.9115 12.8385 63.8789 12.793C63.8529 12.7409 63.8236 12.6855 63.791 12.627C63.765 12.5618 63.7357 12.5033 63.7031 12.4512C63.6771 12.3991 63.6608 12.3633 63.6543 12.3438C63.6348 12.3242 63.5892 12.2819 63.5176 12.2168C63.446 12.1452 63.3646 12.0671 63.2734 11.9824C63.1888 11.8978 63.1074 11.8197 63.0293 11.748C62.9577 11.6699 62.9121 11.6211 62.8926 11.6016C62.8796 11.5951 62.8535 11.5658 62.8145 11.5137C62.7819 11.4551 62.7559 11.4128 62.7363 11.3867C62.6061 11.1654 62.4629 10.9733 62.3066 10.8105C62.1569 10.6413 62.0072 10.4622 61.8574 10.2734C61.8509 10.2539 61.8249 10.2116 61.7793 10.1465C61.7337 10.0814 61.7044 10.0423 61.6914 10.0293C61.6589 9.98372 61.6165 9.92513 61.5645 9.85352C61.5124 9.7819 61.457 9.71029 61.3984 9.63867C61.3398 9.56706 61.2878 9.50521 61.2422 9.45312C61.1966 9.40104 61.1706 9.36849 61.1641 9.35547C61.1641 9.34896 61.1478 9.33919 61.1152 9.32617C61.0892 9.31315 61.0566 9.30013 61.0176 9.28711C60.985 9.26758 60.9525 9.25456 60.9199 9.24805C60.8874 9.23503 60.8678 9.22526 60.8613 9.21875C60.8613 9.21224 60.8516 9.17643 60.832 9.11133C60.819 9.03971 60.806 8.9974 60.793 8.98438C60.793 8.97786 60.7734 8.96159 60.7344 8.93555C60.7018 8.90299 60.6595 8.86719 60.6074 8.82812C60.5618 8.78906 60.513 8.75 60.4609 8.71094C60.4154 8.67188 60.3796 8.63932 60.3535 8.61328C60.2689 8.55469 60.1875 8.49284 60.1094 8.42773C60.0378 8.36263 59.9466 8.33008 59.8359 8.33008V11.6895C59.8424 11.7155 59.8555 11.7643 59.875 11.8359C59.8945 11.901 59.9043 11.9466 59.9043 11.9727V12.8711C59.9043 12.9036 59.9108 12.9688 59.9238 13.0664C59.9434 13.1576 59.9596 13.2585 59.9727 13.3691C59.9922 13.4798 60.0085 13.5905 60.0215 13.7012C60.041 13.8053 60.0573 13.8835 60.0703 13.9355C60.0833 14.0137 60.1094 14.0723 60.1484 14.1113C60.1875 14.1439 60.2331 14.1667 60.2852 14.1797C60.3372 14.1927 60.3958 14.2025 60.4609 14.209C60.526 14.209 60.5879 14.2188 60.6465 14.2383C60.666 14.2448 60.7148 14.2578 60.793 14.2773C60.8776 14.2969 60.9655 14.3197 61.0566 14.3457C61.1543 14.3652 61.2422 14.3848 61.3203 14.4043C61.4049 14.4238 61.4538 14.4368 61.4668 14.4434C61.5189 14.4499 61.5775 14.4564 61.6426 14.4629C61.7142 14.4694 61.7793 14.4824 61.8379 14.502C61.903 14.5215 61.9551 14.554 61.9941 14.5996C62.0397 14.6387 62.0625 14.694 62.0625 14.7656C62.0625 14.8958 62.0202 14.974 61.9355 15C61.8509 15.0326 61.7533 15.0488 61.6426 15.0488H61.3203C61.3073 15.0488 61.2812 15.0521 61.2422 15.0586C61.2096 15.0651 61.1706 15.0716 61.125 15.0781C61.0859 15.0911 61.0469 15.1009 61.0078 15.1074C60.9753 15.1139 60.9557 15.1172 60.9492 15.1172H60.793C60.6042 15.1172 60.4186 15.0911 60.2363 15.0391C60.0605 14.9935 59.875 14.9707 59.6797 14.9707ZM80.1426 13.584C80.1686 13.6035 80.2142 13.6328 80.2793 13.6719C80.3509 13.7044 80.4258 13.7435 80.5039 13.7891C80.582 13.8281 80.6536 13.8672 80.7188 13.9062C80.7904 13.9388 80.8392 13.9648 80.8652 13.9844C80.8783 13.9974 80.901 14.0234 80.9336 14.0625C80.9661 14.1016 80.9889 14.1211 81.002 14.1211C81.015 14.1341 81.041 14.1504 81.0801 14.1699C81.1257 14.1829 81.1549 14.196 81.168 14.209C81.1745 14.209 81.1908 14.2122 81.2168 14.2188C81.2493 14.2253 81.2819 14.2318 81.3145 14.2383C81.347 14.2383 81.3796 14.2415 81.4121 14.248C81.4447 14.2546 81.4642 14.2578 81.4707 14.2578C81.4772 14.2643 81.4935 14.2773 81.5195 14.2969C81.5521 14.3164 81.5814 14.3359 81.6074 14.3555C81.64 14.375 81.6693 14.3913 81.6953 14.4043C81.7214 14.4173 81.7376 14.4238 81.7441 14.4238C81.7572 14.4238 81.7832 14.4271 81.8223 14.4336C81.8678 14.4401 81.9036 14.4434 81.9297 14.4434C81.9557 14.4434 81.9915 14.4401 82.0371 14.4336C82.0827 14.4271 82.1185 14.4238 82.1445 14.4238C82.151 14.4238 82.1706 14.4206 82.2031 14.4141C82.2357 14.4076 82.2715 14.401 82.3105 14.3945C82.3561 14.3815 82.3984 14.3717 82.4375 14.3652C82.4766 14.3587 82.5026 14.3555 82.5156 14.3555C82.6589 14.3294 82.7988 14.3164 82.9355 14.3164C83.0788 14.3164 83.2155 14.3099 83.3457 14.2969C83.4759 14.2839 83.6029 14.2578 83.7266 14.2188C83.8503 14.1732 83.9674 14.0951 84.0781 13.9844C84.0781 13.9714 84.0879 13.9518 84.1074 13.9258C84.1335 13.8932 84.1562 13.8607 84.1758 13.8281C84.2018 13.7891 84.2246 13.7565 84.2441 13.7305C84.2637 13.7044 84.2734 13.6882 84.2734 13.6816C84.2995 13.6556 84.3516 13.6068 84.4297 13.5352C84.5078 13.4635 84.5892 13.3854 84.6738 13.3008C84.7585 13.2161 84.8366 13.1413 84.9082 13.0762C84.9863 13.0046 85.0352 12.959 85.0547 12.9395C85.1589 12.8092 85.2435 12.6725 85.3086 12.5293C85.3802 12.3796 85.4583 12.2396 85.543 12.1094C85.5625 12.0964 85.5918 12.0605 85.6309 12.002C85.6764 11.9368 85.6992 11.901 85.6992 11.8945C85.8294 11.6276 85.9466 11.3704 86.0508 11.123C86.1615 10.8691 86.2559 10.6185 86.334 10.3711C86.4121 10.1172 86.474 9.86003 86.5195 9.59961C86.5651 9.33919 86.5879 9.0625 86.5879 8.76953C86.5879 8.35938 86.5586 7.89388 86.5 7.37305C86.4479 6.85221 86.36 6.33138 86.2363 5.81055C86.1126 5.2832 85.9531 4.7819 85.7578 4.30664C85.569 3.83138 85.3346 3.43099 85.0547 3.10547C85.0352 3.09245 85.0026 3.06966 84.957 3.03711C84.9115 3.00456 84.8822 2.98177 84.8691 2.96875C84.8691 2.94271 84.8594 2.90039 84.8398 2.8418C84.8268 2.77669 84.8138 2.73438 84.8008 2.71484C84.7943 2.71484 84.778 2.70182 84.752 2.67578C84.7259 2.64974 84.6966 2.62044 84.6641 2.58789C84.638 2.55534 84.6087 2.52604 84.5762 2.5C84.5501 2.46745 84.5306 2.44466 84.5176 2.43164C84.3939 2.32747 84.2604 2.24609 84.1172 2.1875C83.974 2.12891 83.8307 2.0638 83.6875 1.99219C83.4141 1.84245 83.1439 1.71549 82.877 1.61133C82.61 1.50716 82.3105 1.45508 81.9785 1.45508C81.7897 1.45508 81.6042 1.48112 81.4219 1.5332C81.2461 1.58529 81.0605 1.63737 80.8652 1.68945C80.7611 1.72201 80.6536 1.7806 80.543 1.86523C80.4323 1.94987 80.3184 2.04427 80.2012 2.14844C80.0905 2.2526 79.9831 2.35677 79.8789 2.46094C79.7747 2.5651 79.6803 2.64974 79.5957 2.71484C79.5827 2.72786 79.5566 2.75065 79.5176 2.7832C79.4785 2.81576 79.4362 2.85156 79.3906 2.89062C79.3516 2.92318 79.3125 2.95573 79.2734 2.98828C79.2344 3.01432 79.2116 3.0306 79.2051 3.03711C79.1465 3.14128 79.0879 3.23893 79.0293 3.33008C78.9772 3.4082 78.9284 3.48958 78.8828 3.57422C78.8372 3.65885 78.7982 3.72721 78.7656 3.7793C78.707 3.88346 78.668 3.99414 78.6484 4.11133C78.6354 4.22201 78.6029 4.33594 78.5508 4.45312C78.4336 4.76562 78.3034 5.08138 78.1602 5.40039C78.0234 5.7194 77.9323 6.04818 77.8867 6.38672C77.8867 6.40625 77.8835 6.45833 77.877 6.54297C77.8704 6.6276 77.8607 6.72201 77.8477 6.82617C77.8411 6.92383 77.8346 7.02148 77.8281 7.11914C77.8216 7.21029 77.8151 7.26888 77.8086 7.29492L77.7695 7.35352C77.75 7.38607 77.7402 7.41211 77.7402 7.43164V7.77344V8.08594C77.7533 8.09896 77.7663 8.11523 77.7793 8.13477C77.7988 8.14779 77.8086 8.16081 77.8086 8.17383C77.8997 8.38216 77.9518 8.60026 77.9648 8.82812C77.9844 9.05599 78.0104 9.28385 78.043 9.51172C78.0885 9.81771 78.1602 10.1042 78.2578 10.3711C78.362 10.638 78.4596 10.9245 78.5508 11.2305C78.5508 11.2435 78.5638 11.2923 78.5898 11.377C78.6224 11.4551 78.6387 11.5072 78.6387 11.5332C78.6452 11.5462 78.6777 11.5918 78.7363 11.6699C78.8014 11.748 78.8405 11.8034 78.8535 11.8359C78.8665 11.8815 78.8796 11.9238 78.8926 11.9629C78.9056 11.9954 78.9154 12.028 78.9219 12.0605C78.9349 12.0866 78.9414 12.1029 78.9414 12.1094C78.9479 12.1289 78.9772 12.1745 79.0293 12.2461C79.0814 12.3112 79.1367 12.3828 79.1953 12.4609C79.2539 12.5326 79.306 12.6009 79.3516 12.666C79.4036 12.7246 79.4362 12.7637 79.4492 12.7832L79.5176 12.9395C79.5306 12.9525 79.5632 12.985 79.6152 13.0371C79.6673 13.0827 79.7227 13.1348 79.7812 13.1934C79.8464 13.252 79.9049 13.3073 79.957 13.3594C80.0091 13.4115 80.0417 13.4408 80.0547 13.4473C80.0547 13.4603 80.0645 13.4831 80.084 13.5156C80.1035 13.5482 80.123 13.571 80.1426 13.584ZM80.7285 15C80.7025 15 80.6699 14.9935 80.6309 14.9805C80.5918 14.9609 80.569 14.9512 80.5625 14.9512C80.5495 14.9447 80.5104 14.9316 80.4453 14.9121C80.3802 14.8861 80.3086 14.8633 80.2305 14.8438C80.1523 14.8177 80.0775 14.7949 80.0059 14.7754C79.9408 14.7493 79.9017 14.7331 79.8887 14.7266C79.8105 14.6875 79.7389 14.6517 79.6738 14.6191C79.6152 14.5801 79.5566 14.541 79.498 14.502C79.446 14.4629 79.3906 14.4238 79.332 14.3848C79.2734 14.3392 79.2083 14.2969 79.1367 14.2578C79.1237 14.2513 79.0977 14.2415 79.0586 14.2285C79.0195 14.209 78.974 14.1895 78.9219 14.1699C78.8763 14.1439 78.834 14.1211 78.7949 14.1016C78.7559 14.082 78.7298 14.0658 78.7168 14.0527C78.4564 13.9355 78.1992 13.7793 77.9453 13.584C77.6979 13.3887 77.4635 13.1738 77.2422 12.9395C77.0208 12.6986 76.8223 12.4447 76.6465 12.1777C76.4772 11.9043 76.3405 11.6341 76.2363 11.3672C76.2363 11.3542 76.2298 11.3216 76.2168 11.2695C76.2103 11.2174 76.1973 11.1621 76.1777 11.1035C76.1647 11.0449 76.1484 10.9896 76.1289 10.9375C76.1159 10.8854 76.1061 10.8529 76.0996 10.8398C76.0996 10.8398 76.0931 10.8301 76.0801 10.8105C76.0671 10.7845 76.0508 10.7585 76.0312 10.7324C76.0117 10.7064 75.9922 10.6836 75.9727 10.6641C75.9531 10.638 75.9401 10.625 75.9336 10.625C75.9336 10.6185 75.9303 10.6022 75.9238 10.5762C75.9173 10.5436 75.9108 10.5111 75.9043 10.4785C75.9043 10.446 75.901 10.4134 75.8945 10.3809C75.888 10.3483 75.8848 10.3288 75.8848 10.3223C75.8783 10.3158 75.8685 10.2995 75.8555 10.2734C75.8424 10.2474 75.8262 10.2181 75.8066 10.1855C75.7936 10.153 75.7806 10.1237 75.7676 10.0977C75.7546 10.0651 75.748 10.0391 75.748 10.0195C75.7285 10 75.7057 9.94466 75.6797 9.85352C75.6536 9.75586 75.6406 9.6875 75.6406 9.64844C75.6341 9.57682 75.6211 9.4694 75.6016 9.32617C75.5885 9.17643 75.5755 9.02669 75.5625 8.87695C75.5495 8.72721 75.5365 8.59049 75.5234 8.4668C75.5104 8.33659 75.5039 8.25521 75.5039 8.22266V7.68555C75.5039 7.29492 75.5365 6.91406 75.6016 6.54297C75.6667 6.17188 75.7611 5.78776 75.8848 5.39062C75.9108 5.31901 75.9434 5.26367 75.9824 5.22461C76.028 5.18555 76.0671 5.12044 76.0996 5.0293C76.1257 4.96419 76.1517 4.87305 76.1777 4.75586C76.2103 4.63216 76.2428 4.50846 76.2754 4.38477C76.3145 4.25456 76.3535 4.13411 76.3926 4.02344C76.4382 3.90625 76.487 3.82487 76.5391 3.7793L78.043 2.29492C78.2057 2.22331 78.3587 2.11914 78.502 1.98242C78.6452 1.8457 78.7917 1.71875 78.9414 1.60156C78.9479 1.60156 78.9674 1.59831 79 1.5918C79.0391 1.57878 79.0651 1.56576 79.0781 1.55273C79.2669 1.4681 79.4622 1.38021 79.6641 1.28906C79.8659 1.19141 80.0645 1.1263 80.2598 1.09375C80.2663 1.09375 80.2793 1.09049 80.2988 1.08398C80.3184 1.07096 80.3444 1.06445 80.377 1.06445C80.429 1.06445 80.4811 1.05794 80.5332 1.04492C80.5853 1.0319 80.6178 1.02539 80.6309 1.02539C80.6374 1.02539 80.6667 1.02214 80.7188 1.01562C80.7708 1.00911 80.8294 1.0026 80.8945 0.996094C80.9596 0.983073 81.0247 0.970052 81.0898 0.957031C81.1615 0.94401 81.2168 0.934245 81.2559 0.927734C81.2559 0.908203 81.2884 0.895182 81.3535 0.888672C81.4186 0.882161 81.4577 0.878906 81.4707 0.878906C81.4837 0.878906 81.513 0.878906 81.5586 0.878906C81.6107 0.872396 81.666 0.865885 81.7246 0.859375C81.7832 0.852865 81.8353 0.849609 81.8809 0.849609C81.9329 0.843099 81.9655 0.839844 81.9785 0.839844C81.9915 0.839844 82.0273 0.833333 82.0859 0.820312C82.1445 0.800781 82.1836 0.791016 82.2031 0.791016H82.3008C82.4961 0.791016 82.7272 0.804036 82.9941 0.830078C83.2676 0.85612 83.541 0.898438 83.8145 0.957031C84.0944 1.00911 84.3613 1.07747 84.6152 1.16211C84.8757 1.24023 85.0905 1.33789 85.2598 1.45508C85.2598 1.45508 85.2695 1.4681 85.2891 1.49414C85.3151 1.51367 85.3411 1.53971 85.3672 1.57227C85.3932 1.59831 85.416 1.62435 85.4355 1.65039C85.4616 1.66992 85.4746 1.68294 85.4746 1.68945C85.5462 1.74154 85.6178 1.78385 85.6895 1.81641C85.7611 1.84245 85.8327 1.86849 85.9043 1.89453C85.9759 1.92057 86.0443 1.94987 86.1094 1.98242C86.1745 2.01497 86.2396 2.0638 86.3047 2.12891C86.5391 2.35026 86.7441 2.5651 86.9199 2.77344C87.1022 2.97526 87.265 3.18359 87.4082 3.39844C87.5579 3.61328 87.6979 3.8444 87.8281 4.0918C87.9583 4.33268 88.0918 4.59961 88.2285 4.89258C88.235 4.9056 88.2513 4.93815 88.2773 4.99023C88.3034 5.03581 88.3262 5.08789 88.3457 5.14648C88.3717 5.19857 88.3945 5.25065 88.4141 5.30273C88.4401 5.35482 88.4564 5.38411 88.4629 5.39062C88.4629 5.41016 88.4727 5.43294 88.4922 5.45898C88.5052 5.47852 88.5182 5.49479 88.5312 5.50781C88.6094 5.61849 88.6549 5.74219 88.668 5.87891C88.6875 6.01562 88.6973 6.1556 88.6973 6.29883C88.7038 6.44206 88.7103 6.58529 88.7168 6.72852C88.7233 6.87174 88.7526 7.00521 88.8047 7.12891C88.8112 7.16146 88.8145 7.2168 88.8145 7.29492C88.821 7.36654 88.8242 7.44792 88.8242 7.53906C88.8307 7.6237 88.834 7.70508 88.834 7.7832C88.834 7.86133 88.834 7.91341 88.834 7.93945C88.834 8.30404 88.821 8.66862 88.7949 9.0332C88.7754 9.39779 88.7396 9.75911 88.6875 10.1172C88.6875 10.1302 88.6777 10.1628 88.6582 10.2148C88.6387 10.2669 88.6191 10.3027 88.5996 10.3223C88.5996 10.3288 88.5931 10.3483 88.5801 10.3809C88.5671 10.4134 88.5508 10.446 88.5312 10.4785C88.5117 10.5111 88.4954 10.5436 88.4824 10.5762C88.4694 10.6022 88.4629 10.6185 88.4629 10.625C88.4564 10.638 88.4466 10.6706 88.4336 10.7227C88.4271 10.7747 88.4206 10.8301 88.4141 10.8887C88.4076 10.9473 88.401 11.0026 88.3945 11.0547C88.388 11.1068 88.3848 11.1393 88.3848 11.1523C88.3392 11.3021 88.2611 11.4421 88.1504 11.5723C88.0397 11.696 87.9486 11.8294 87.877 11.9727C87.7858 12.1094 87.6979 12.2493 87.6133 12.3926C87.5286 12.5358 87.4342 12.666 87.3301 12.7832C87.3236 12.8027 87.3008 12.8353 87.2617 12.8809C87.2292 12.9199 87.2096 12.9395 87.2031 12.9395C86.9492 13.1348 86.7116 13.3301 86.4902 13.5254C86.2689 13.7142 86.0312 13.89 85.7773 14.0527C85.7057 14.0983 85.6309 14.1634 85.5527 14.248C85.4811 14.3262 85.4095 14.3848 85.3379 14.4238C85.3184 14.4368 85.2663 14.4596 85.1816 14.4922C85.1035 14.5247 85.0156 14.5638 84.918 14.6094C84.8268 14.6484 84.7422 14.6875 84.6641 14.7266C84.5859 14.7591 84.5371 14.7819 84.5176 14.7949C84.5046 14.7949 84.4883 14.7982 84.4688 14.8047C84.4557 14.8112 84.4427 14.8177 84.4297 14.8242C84.4102 14.8307 84.3939 14.8372 84.3809 14.8438C84.3613 14.8568 84.3158 14.8698 84.2441 14.8828C84.179 14.8893 84.1074 14.8991 84.0293 14.9121C83.9512 14.9251 83.8796 14.9349 83.8145 14.9414C83.7493 14.9479 83.707 14.9512 83.6875 14.9512C83.6745 14.9642 83.6387 14.9772 83.5801 14.9902C83.5215 14.9967 83.4824 15 83.4629 15C83.3132 15.0586 83.1439 15.1009 82.9551 15.127C82.7728 15.153 82.6068 15.166 82.457 15.166C82.418 15.166 82.3626 15.1628 82.291 15.1562C82.2259 15.1562 82.1608 15.153 82.0957 15.1465C82.0306 15.1465 81.972 15.1432 81.9199 15.1367C81.8743 15.1367 81.8483 15.1367 81.8418 15.1367C81.7962 15.1367 81.7181 15.1302 81.6074 15.1172C81.5033 15.1107 81.3926 15.1009 81.2754 15.0879C81.1582 15.0749 81.0475 15.0586 80.9434 15.0391C80.8392 15.026 80.7676 15.013 80.7285 15Z" fill="#C8A4B1"/>
</svg>
