<svg width="37" height="34" viewBox="0 0 37 34" fill="none" xmlns="http://www.w3.org/2000/svg">
<path d="M4.20833 33.6667H32.7917C35.0436 33.6667 36.875 32.1717 36.875 30.3333V12C36.875 11.558 36.6599 11.134 36.277 10.8215C35.8941 10.5089 35.3748 10.3333 34.8333 10.3333H28.7083V8.66666C28.7083 4.07166 24.1289 0.333328 18.5 0.333328C12.8711 0.333328 8.29167 4.07166 8.29167 8.66666V10.3333H2.16667C1.62518 10.3333 1.10588 10.5089 0.72299 10.8215C0.340103 11.134 0.125 11.558 0.125 12V30.3333C0.125 32.1717 1.95638 33.6667 4.20833 33.6667ZM12.375 8.66666C12.375 5.90999 15.1231 3.66666 18.5 3.66666C21.8769 3.66666 24.625 5.90999 24.625 8.66666V10.3333H12.375V8.66666ZM4.20833 13.6667H8.29167V17H12.375V13.6667H24.625V17H28.7083V13.6667H32.7917L32.7958 30.3333H4.20833V13.6667Z" fill="black"/>
</svg>
